<svg width="311" height="455" viewBox="0 0 311 455" fill="none" xmlns="http://www.w3.org/2000/svg">
<path d="M45.974 281.26C49.4224 285.519 55.4438 289.575 63.0163 294.714L62.0655 296.064L63.4199 294.917C80.5935 306.613 104.257 322.568 121.831 355.222C129.814 369.959 138.533 378.074 147.052 385.918C154.016 392.275 160.574 398.357 166.391 407.754C166.859 408.498 167.27 409.177 167.674 409.92L225.281 380.982C224.402 376.519 224.402 371.788 225.281 367.053C228.318 350.559 228.054 339.534 227.243 333.181C224.938 314.793 231.838 300.256 247.725 289.979C262.395 280.377 257.867 272.266 257.595 271.727C256.109 268.346 249.076 260.707 234.819 266.249C225.285 269.969 205.339 277.673 194.79 312.56C191.613 322.901 186.339 329.258 179.11 331.288C168.29 334.397 155.243 327.432 149.09 322.026C121.775 298.023 61.5349 258.273 47.7446 264.899C45.0433 266.113 43.1494 268.483 42.5419 271.052C41.8553 274.165 43.006 277.613 45.9752 281.261L45.974 281.26Z" fill="black"/>
<path d="M167.737 419.316L169.36 418.505L175.513 415.464V415.396L198.505 403.901L223.179 391.53L229.269 388.489L230.008 388.081C230.819 387.674 231.77 387.606 232.649 387.878C233.321 388.081 233.864 388.485 234.271 389.025C234.403 389.228 234.471 389.432 234.607 389.632L248.533 418.229C248.6 418.297 248.6 418.433 248.6 418.501C249.28 420.123 248.6 421.949 247.05 422.693L185.183 454.603C185.051 454.671 184.911 454.671 184.847 454.739C184.444 454.875 184.036 454.943 183.632 454.943C183.225 454.943 182.885 454.875 182.55 454.81C181.671 454.471 180.991 453.864 180.588 453.052L166.255 423.847C165.44 422.157 166.119 420.195 167.737 419.316L167.737 419.316Z" fill="black"/>
<path d="M6.76088 244.963H304.239C307.955 244.963 311 248.004 311 251.724C311 255.444 307.955 258.485 304.239 258.485H6.76088C3.04462 258.485 5.60284e-06 255.444 5.60284e-06 251.724C5.60284e-06 248.008 3.04462 244.963 6.76088 244.963Z" fill="black"/>
<path d="M38.0636 238.135H31.3028C37.8562 182.965 84.5108 139.697 142.451 133.95C140.014 131.045 138.596 127.261 138.596 123.201C138.596 113.939 146.168 106.299 155.498 106.299C164.828 106.299 172.4 113.939 172.4 123.201C172.4 127.257 170.981 131.045 168.544 133.95C226.487 139.696 273.135 182.966 279.693 238.135H38.0636ZM165.641 123.2C165.641 117.654 161.114 113.059 155.5 113.059C149.886 113.059 145.359 117.654 145.359 123.2C145.359 128.814 149.886 133.341 155.5 133.341C161.114 133.341 165.641 128.814 165.641 123.2Z" fill="black"/>
<path d="M162.812 92.5153C164.106 92.5153 165.4 91.9796 166.339 90.9458C168.082 88.9991 167.916 86.0072 165.977 84.2566C165.192 83.5435 146.645 66.3055 161.604 46.2422C166.69 39.4209 168.486 32.2974 166.939 25.0807C163.77 10.2917 147.335 0.987807 146.637 0.598574C144.339 -0.676623 141.472 0.157156 140.204 2.42082C138.929 4.69962 139.74 7.58584 142.019 8.8648C142.151 8.93648 155.442 16.5123 157.688 27.0873C158.639 31.5769 157.439 35.9949 154.009 40.5897C137.881 62.2264 150.644 83.2266 159.65 91.3117C160.555 92.1153 161.683 92.5152 162.811 92.5152L162.812 92.5153Z" fill="black"/>
<path d="M195.785 113.638C197 113.638 198.207 113.174 199.132 112.246C200.98 110.397 200.98 107.398 199.124 105.557C198.377 104.799 180.724 86.5569 196.668 67.3348C202.082 60.804 204.232 53.7976 203.074 46.5238C200.686 31.5611 184.727 21.3628 184.044 20.933C181.818 19.5446 178.921 20.2199 177.529 22.4119C176.129 24.6228 176.789 27.5429 178.996 28.9426C179.128 29.0218 192.043 37.3333 193.733 48.044C194.446 52.5676 193.027 56.8988 189.383 61.2904C172.182 82.0367 183.863 103.697 192.446 112.254C193.367 113.174 194.578 113.639 195.785 113.639L195.785 113.638Z" fill="black"/>
<path d="M126.622 110.016C127.836 110.016 129.044 109.552 129.968 108.624C131.817 106.776 131.817 103.776 129.96 101.935C129.213 101.177 111.56 82.9351 127.504 63.7129C132.918 57.1822 135.069 50.1757 133.911 42.902C131.522 27.9392 115.563 17.741 114.881 17.3112C112.655 15.9228 109.75 16.5981 108.365 18.79C106.965 21.0009 107.625 23.9211 109.833 25.3208C109.965 25.4 122.879 33.7115 124.569 44.4221C125.282 48.9457 123.864 53.2769 120.219 57.6686C103.019 78.4148 114.7 100.075 123.283 108.632C124.207 109.553 125.414 110.017 126.622 110.017L126.622 110.016Z" fill="black"/>
</svg>
