<svg width="338" height="601" viewBox="0 0 338 601" fill="none" xmlns="http://www.w3.org/2000/svg">
<path d="M58.9738 281.26C62.4221 285.519 68.4436 289.575 76.016 294.714L75.0653 296.064L76.4197 294.917C93.5932 306.613 117.256 322.568 134.831 355.222C142.814 369.959 151.533 378.074 160.052 385.918C167.016 392.275 173.573 398.357 179.391 407.754C179.858 408.498 180.27 409.177 180.673 409.92L238.281 380.982C237.402 376.519 237.402 371.788 238.281 367.053C241.318 350.559 241.054 339.534 240.243 333.181C237.937 314.793 244.838 300.256 260.725 289.979C275.394 280.377 270.866 272.266 270.595 271.727C269.108 268.346 262.076 260.707 247.819 266.249C238.285 269.969 218.338 277.673 207.789 312.56C204.613 322.901 199.338 329.258 192.11 331.288C181.29 334.397 168.243 327.432 162.09 322.026C134.775 298.023 74.5346 258.273 60.7444 264.899C58.043 266.113 56.1491 268.483 55.5417 271.052C54.855 274.165 56.0058 277.613 58.975 281.261L58.9738 281.26Z" />
<path d="M180.737 419.316L182.359 418.505L188.513 415.464V415.396L211.505 403.901L236.179 391.53L242.268 388.489L243.008 388.081C243.819 387.674 244.77 387.606 245.649 387.878C246.32 388.081 246.864 388.485 247.271 389.025C247.403 389.228 247.471 389.432 247.607 389.632L261.532 418.229C261.6 418.297 261.6 418.433 261.6 418.501C262.279 420.123 261.6 421.949 260.05 422.693L198.183 454.603C198.051 454.671 197.911 454.671 197.847 454.739C197.443 454.875 197.036 454.943 196.632 454.943C196.225 454.943 195.885 454.875 195.549 454.81C194.67 454.471 193.991 453.864 193.588 453.052L179.254 423.847C178.44 422.157 179.119 420.195 180.737 419.316L180.737 419.316Z" />
<path d="M19.7609 244.963H317.239C320.955 244.963 324 248.004 324 251.724C324 255.444 320.955 258.485 317.239 258.485H19.7609C16.0446 258.485 13 255.444 13 251.724C13 248.008 16.0446 244.963 19.7609 244.963Z" />
<path d="M51.0639 238.135H44.303C50.8564 182.965 97.5111 139.697 155.452 133.95C153.015 131.045 151.596 127.261 151.596 123.201C151.596 113.939 159.168 106.299 168.498 106.299C177.828 106.299 185.4 113.939 185.4 123.201C185.4 127.257 183.982 131.045 181.544 133.95C239.487 139.696 286.135 182.966 292.693 238.135H51.0639ZM178.641 123.2C178.641 117.654 174.114 113.059 168.5 113.059C162.886 113.059 158.359 117.654 158.359 123.2C158.359 128.814 162.886 133.341 168.5 133.341C174.114 133.341 178.641 128.814 178.641 123.2Z" />
<path d="M175.812 92.5153C177.106 92.5153 178.4 91.9796 179.339 90.9458C181.082 88.9991 180.916 86.0072 178.977 84.2566C178.192 83.5435 159.645 66.3055 174.604 46.2422C179.69 39.4209 181.486 32.2974 179.939 25.0807C176.77 10.2917 160.335 0.987807 159.637 0.598574C157.339 -0.676623 154.472 0.157156 153.204 2.42082C151.929 4.69962 152.74 7.58584 155.019 8.8648C155.151 8.93648 168.442 16.5123 170.688 27.0873C171.639 31.5769 170.439 35.9949 167.009 40.5897C150.881 62.2264 163.644 83.2266 172.65 91.3117C173.555 92.1153 174.683 92.5152 175.811 92.5152L175.812 92.5153Z" />
<path d="M208.785 113.638C210 113.638 211.207 113.174 212.132 112.246C213.98 110.397 213.98 107.398 212.124 105.557C211.377 104.799 193.724 86.5569 209.668 67.3348C215.082 60.804 217.232 53.7976 216.074 46.5238C213.686 31.5611 197.727 21.3628 197.044 20.933C194.818 19.5446 191.921 20.2199 190.529 22.4119C189.129 24.6228 189.789 27.5429 191.996 28.9426C192.128 29.0218 205.043 37.3333 206.733 48.044C207.446 52.5676 206.027 56.8988 202.383 61.2904C185.182 82.0367 196.863 103.697 205.446 112.254C206.367 113.174 207.578 113.639 208.785 113.639L208.785 113.638Z" />
<path d="M139.622 110.016C140.836 110.016 142.044 109.552 142.968 108.624C144.817 106.776 144.817 103.776 142.96 101.935C142.213 101.177 124.56 82.9351 140.504 63.7129C145.918 57.1822 148.069 50.1757 146.911 42.902C144.522 27.9392 128.563 17.741 127.881 17.3112C125.655 15.9228 122.75 16.5981 121.365 18.79C119.965 21.0009 120.625 23.9211 122.833 25.3208C122.965 25.4 135.879 33.7115 137.569 44.4221C138.282 48.9457 136.864 53.2769 133.219 57.6686C116.019 78.4148 127.7 100.075 136.283 108.632C137.207 109.553 138.414 110.017 139.622 110.017L139.622 110.016Z" />
<path d="M71.475 518.725L56.325 571H48.675L36.525 528.925L23.925 571L16.35 571.075L1.725 518.725H9L20.4 563.05L33 518.725H40.65L52.65 562.9L64.125 518.725H71.475ZM76.3939 550.3C76.3939 546.1 77.2439 542.425 78.9439 539.275C80.6439 536.075 82.9689 533.6 85.9189 531.85C88.9189 530.1 92.2439 529.225 95.8939 529.225C99.4939 529.225 102.619 530 105.269 531.55C107.919 533.1 109.894 535.05 111.194 537.4V529.9H118.094V571H111.194V563.35C109.844 565.75 107.819 567.75 105.119 569.35C102.469 570.9 99.3689 571.675 95.8189 571.675C92.1689 571.675 88.8689 570.775 85.9189 568.975C82.9689 567.175 80.6439 564.65 78.9439 561.4C77.2439 558.15 76.3939 554.45 76.3939 550.3ZM111.194 550.375C111.194 547.275 110.569 544.575 109.319 542.275C108.069 539.975 106.369 538.225 104.219 537.025C102.119 535.775 99.7939 535.15 97.2439 535.15C94.6939 535.15 92.3689 535.75 90.2689 536.95C88.1689 538.15 86.4939 539.9 85.2439 542.2C83.9939 544.5 83.3689 547.2 83.3689 550.3C83.3689 553.45 83.9939 556.2 85.2439 558.55C86.4939 560.85 88.1689 562.625 90.2689 563.875C92.3689 565.075 94.6939 565.675 97.2439 565.675C99.7939 565.675 102.119 565.075 104.219 563.875C106.369 562.625 108.069 560.85 109.319 558.55C110.569 556.2 111.194 553.475 111.194 550.375ZM133.153 523.225C131.853 523.225 130.753 522.775 129.853 521.875C128.953 520.975 128.503 519.875 128.503 518.575C128.503 517.275 128.953 516.175 129.853 515.275C130.753 514.375 131.853 513.925 133.153 513.925C134.403 513.925 135.453 514.375 136.303 515.275C137.203 516.175 137.653 517.275 137.653 518.575C137.653 519.875 137.203 520.975 136.303 521.875C135.453 522.775 134.403 523.225 133.153 523.225ZM136.453 529.9V571H129.628V529.9H136.453ZM156.41 535.525V559.75C156.41 561.75 156.835 563.175 157.685 564.025C158.535 564.825 160.01 565.225 162.11 565.225H167.135V571H160.985C157.185 571 154.335 570.125 152.435 568.375C150.535 566.625 149.585 563.75 149.585 559.75V535.525H144.26V529.9H149.585V519.55H156.41V529.9H167.135V535.525H156.41ZM212.904 548.875C212.904 550.175 212.829 551.55 212.679 553H179.829C180.079 557.05 181.454 560.225 183.954 562.525C186.504 564.775 189.579 565.9 193.179 565.9C196.129 565.9 198.579 565.225 200.529 563.875C202.529 562.475 203.929 560.625 204.729 558.325H212.079C210.979 562.275 208.779 565.5 205.479 568C202.179 570.45 198.079 571.675 193.179 571.675C189.279 571.675 185.779 570.8 182.679 569.05C179.629 567.3 177.229 564.825 175.479 561.625C173.729 558.375 172.854 554.625 172.854 550.375C172.854 546.125 173.704 542.4 175.404 539.2C177.104 536 179.479 533.55 182.529 531.85C185.629 530.1 189.179 529.225 193.179 529.225C197.079 529.225 200.529 530.075 203.529 531.775C206.529 533.475 208.829 535.825 210.429 538.825C212.079 541.775 212.904 545.125 212.904 548.875ZM205.854 547.45C205.854 544.85 205.279 542.625 204.129 540.775C202.979 538.875 201.404 537.45 199.404 536.5C197.454 535.5 195.279 535 192.879 535C189.429 535 186.479 536.1 184.029 538.3C181.629 540.5 180.254 543.55 179.904 547.45H205.854ZM228.738 536.575C229.938 534.225 231.638 532.4 233.838 531.1C236.088 529.8 238.813 529.15 242.013 529.15V536.2H240.213C232.563 536.2 228.738 540.35 228.738 548.65V571H221.913V529.9H228.738V536.575ZM279.636 518.65V551.05C279.636 554.6 280.561 557.325 282.411 559.225C284.261 561.075 286.861 562 290.211 562C293.611 562 296.236 561.075 298.086 559.225C299.936 557.325 300.861 554.6 300.861 551.05V518.65H311.436V550.975C311.436 555.425 310.461 559.2 308.511 562.3C306.611 565.35 304.036 567.65 300.786 569.2C297.586 570.75 294.011 571.525 290.061 571.525C286.161 571.525 282.611 570.75 279.411 569.2C276.261 567.65 273.761 565.35 271.911 562.3C270.061 559.2 269.136 555.425 269.136 550.975V518.65H279.636ZM332.081 518.65V571H321.581V518.65H332.081Z" />
</svg>
